# xmcd CD database file
#
# Track frame offsets:
#	150
#	8659
#	22296
#	43983
#	60921
#	80608
#	99084
#	116162
#	131520
#
# Disc length: 1947 seconds
#
# Revision: 0
# Processed by: cddbd v1.5.2PL0 Copyright (c) Steve Scherf et al.
# Submitted via: CDex 1.51
#
DISCID=6e079909
DTITLE=Double Espresso - Too
DYEAR=1900
DGENRE=Jazz
TTITLE0=Double Espresso - Mama Naxi
TTITLE1=Double Espresso - Tributu
TTITLE2=Double Espresso - Black Ears
TTITLE3=Double Espresso - Red Balloon
TTITLE4=Double Espresso - Da Alegria
TTITLE5=Double Espresso - Sonhando Versos
TTITLE6=Double Espresso - Rusch Hour
TTITLE7=Double Espresso - E's Groove
TTITLE8=Double Espresso - I.D.C.
EXTD=
EXTT0=
EXTT1=
EXTT2=
EXTT3=
EXTT4=
EXTT5=
EXTT6=
EXTT7=
EXTT8=
PLAYORDER=
